{"title":"The.Five.2010.DVDRip.XviD-SDTeam","uid":5761654,"size":362287004,"categoryP":"video","categoryS":"movies","magnet":"?xt=urn:btih:b476c42dc83c3fa6234ac51213a0a93f646ac7c4&amp;dn=The.Five.2010.DVDRip.XviD-SDTeam&amp;tr=udp%3A%2F%2Ftracker.openbittorrent.com%3A80&amp;tr=udp%3A%2F%2Fopen.demonii.com%3A1337&amp;tr=udp%3A%2F%2Ftracker.coppersurfer.tk%3A6969&amp;tr=udp%3A%2F%2Fexodus.desync.com%3A6969","seeders":0,"leechers":0,"uploader":"bg2k9","files":28,"time":1281751164,"description":"GREETZ: UnDeaD - BadGirl2k9 - virusofsaten - foxyb - WICCYWOLF - lizzymwah1\n\nRELEASE NAME: The.Five.2010.DVDRip.XviD-SDTeam\nRELEASED BY: UnDeaD &amp; BadGirl2k9\nSIZE: 345 MB\n\nLANGUAGE: English\nIMDb: http://www.imdb.com/title/tt1104779/\n\nPLOT: Summer vacation in Mountain's Edge, a sprawling \ntwo-square-mile subdivision of three-story half-million-dollar \ncatalogue homes in suburban Denver. At the heart of the subdivision, \nits own fleet of soccer fields, manicured and gleaming - a game in \nplay, a swarm of 12-year-olds running from end to end, moms and dads \nin that &quot;off-duty Hollywood&quot; look. At the foot of the subdivision: \nThe desert to one side, long and dry, and endless-looking. To the \nother side, a span of high-desert foothills, rolling upward into the \ngreener, higher mountains. It is here that two sets of kids - neighbors \nin both landscape and loss - will wake one morning to find that their \npaths begin to resemble that of a character in their favorite mythological \nbook series. What they don't yet know is that an invisible darkness \nfollowing them is what they make it out to be - themselves, their fears \nabout their parents, the frequency of change in their lives, and the \ninstability of a world lived on the mountain's edge.\n\nSCREENS: &lt;a href=&quot;\nhttp://i658.photobucket.com/albums/uu309/BadGirl2k9/screens/vlcsnap-2010-08-14-00h46m02s102.png&quot; rel=&quot;nofollow&quot; target=&quot;_NEW&quot;&gt;\nhttp://i658.photobucket.com/albums/uu309/BadGirl2k9/screens/vlcsnap-2010-08-14-00h46m02s102.png&lt;/a&gt; &lt;a href=&quot;\nhttp://i658.photobucket.com/albums/uu309/BadGirl2k9/screens/vlcsnap-2010-08-14-00h46m11s95.png&quot; rel=&quot;nofollow&quot; target=&quot;_NEW&quot;&gt;\nhttp://i658.photobucket.com/albums/uu309/BadGirl2k9/screens/vlcsnap-2010-08-14-00h46m11s95.png&lt;/a&gt; &lt;a href=&quot;\nhttp://i658.photobucket.com/albums/uu309/BadGirl2k9/screens/vlcsnap-2010-08-14-00h46m29s25.png&quot; rel=&quot;nofollow&quot; target=&quot;_NEW&quot;&gt;\nhttp://i658.photobucket.com/albums/uu309/BadGirl2k9/screens/vlcsnap-2010-08-14-00h46m29s25.png&lt;/a&gt;\n\nGeneral\nComplete name                    : C:\\Users\\root\\Desktop\\The.Five.2010.DVDRip.XviD-SDTeam\\The.Five.2010.DVDRip.XviD-SDTeam.avi\nFormat                           : AVI\nFormat/Info                      : Audio Video Interleave\nFile size                        : 345 MiB\nDuration                         : 1h 24mn\nOverall bit rate                 : 572 Kbps\nWriting application              : MEncoder SVN-r22963\nWriting library                  : MPlayer\n\nVideo\nID                               : 0\nFormat                           : MPEG-4 Visual\nFormat profile                   : Simple@L3\nFormat settings, BVOP            : No\nFormat settings, QPel            : No\nFormat settings, GMC             : No warppoints\nFormat settings, Matrix          : Default (H.263)\nCodec ID                         : XVID\nCodec ID/Hint                    : XviD\nDuration                         : 1h 24mn\nBit rate                         : 496 Kbps\nWidth                            : 512 pixels\nHeight                           : 288 pixels\nDisplay aspect ratio             : 16:9\nFrame rate                       : 20.000 fps\nResolution                       : 8 bits\nColorimetry                      : 4:2:0\nScan type                        : Progressive\nBits/(Pixel*Frame)               : 0.168\nStream size                      : 300 MiB (87%)\nWriting library                  : XviD 1.1.2 (UTC 2006-11-01)\n\nAudio\nID                               : 1\nFormat                           : MPEG Audio\nFormat version                   : Version 1\nFormat profile                   : Layer 3\nCodec ID                         : 55\nCodec ID/Hint                    : MP3\nDuration                         : 1h 24mn\nBit rate mode                    : Constant\nBit rate                         : 64.0 Kbps\nChannel(s)                       : 2 channels\nSampling rate                    : 44.1 KHz\nStream size                      : 38.7 MiB (11%)\nAlignment                        : Aligned on interleaves\nInterleave, duration             : 26 ms (0.52 video frame)\nInterleave, preload duration     : 522 ms\nWriting library                  : LAME3.97","torrent":{"xt":"urn:btih:b476c42dc83c3fa6234ac51213a0a93f646ac7c4","amp;dn":"The.Five.2010.DVDRip.XviD-SDTeam","amp;tr":["udp%3A%2F%2Ftracker.openbittorrent.com%3A80","udp%3A%2F%2Fopen.demonii.com%3A1337","udp%3A%2F%2Ftracker.coppersurfer.tk%3A6969","udp%3A%2F%2Fexodus.desync.com%3A6969"],"infoHash":"b476c42dc83c3fa6234ac51213a0a93f646ac7c4","infoHashBuffer":{"type":"Buffer","data":[180,118,196,45,200,60,63,166,35,74,197,18,19,160,169,63,100,106,199,196]},"announce":[],"urlList":[]}}